<svg width="24" height="24" viewBox="0 0 24 24" fill="none" xmlns="http://www.w3.org/2000/svg">
<path d="M15.2837 15.3486C15.8076 15.5232 16.3739 15.2401 16.5486 14.7161C16.7232 14.1922 16.4401 13.6259 15.9161 13.4512L15.2837 15.3486ZM11.9999 13.1999H10.9999C10.9999 13.6303 11.2753 14.0125 11.6837 14.1486L11.9999 13.1999ZM12.9999 8.18216C12.9999 7.62988 12.5522 7.18216 11.9999 7.18216C11.4476 7.18216 10.9999 7.62988 10.9999 8.18216H12.9999ZM15.9161 13.4512L12.3161 12.2512L11.6837 14.1486L15.2837 15.3486L15.9161 13.4512ZM12.9999 13.1999V8.18216H10.9999V13.1999H12.9999ZM20.5999 11.9999C20.5999 16.7495 16.7495 20.5999 11.9999 20.5999V22.5999C17.8541 22.5999 22.5999 17.8541 22.5999 11.9999H20.5999ZM11.9999 20.5999C7.25025 20.5999 3.3999 16.7495 3.3999 11.9999H1.3999C1.3999 17.8541 6.14568 22.5999 11.9999 22.5999V20.5999ZM3.3999 11.9999C3.3999 7.25025 7.25025 3.3999 11.9999 3.3999V1.3999C6.14568 1.3999 1.3999 6.14568 1.3999 11.9999H3.3999ZM11.9999 3.3999C16.7495 3.3999 20.5999 7.25025 20.5999 11.9999H22.5999C22.5999 6.14568 17.8541 1.3999 11.9999 1.3999V3.3999Z" fill="white"/>
</svg>
