<svg width="28" height="23" viewBox="0 0 28 23" fill="none" xmlns="http://www.w3.org/2000/svg">
<g clip-path="url(#clip0_80_9613)">
<path d="M5.34593 0C4.01156 0 2.86531 0.940625 2.60281 2.24875L0.36281 13.4487C0.0171851 15.1812 1.33843 16.8 3.10594 16.8H12.5997V19.6H9.79968C9.02531 19.6 8.39968 20.2256 8.39968 21C8.39968 21.7744 9.02531 22.4 9.79968 22.4H18.1997C18.9741 22.4 19.5997 21.7744 19.5997 21C19.5997 20.2256 18.9741 19.6 18.1997 19.6H15.3997V16.8H24.8934C26.6609 16.8 27.9866 15.1856 27.6409 13.4487L25.4009 2.24875C25.1341 0.940625 23.9878 0 22.6534 0H5.34593ZM11.4141 2.8H16.5853L17.0403 7.35H10.9591L11.4141 2.8ZM8.85031 7.35H4.43594L5.34593 2.8H9.30093L8.85031 7.35ZM4.01593 9.45H8.64031L8.18531 14H3.10594L4.01593 9.45ZM10.7491 9.45H17.2503L17.7053 14H10.2941L10.7491 9.45ZM19.3591 9.45H23.9834L24.8934 14H19.8184L19.3591 9.45ZM23.5591 7.35H19.1491L18.6941 2.8H22.6491L24.0228 2.52437L22.6534 2.8L23.5634 7.35H23.5591Z" fill="white"/>
</g>
<defs>
<clipPath id="clip0_80_9613">
<rect width="28" height="22.4" fill="white"/>
</clipPath>
</defs>
</svg>
