<svg width="308" height="83" viewBox="0 0 308 83" fill="none" xmlns="http://www.w3.org/2000/svg">
<path d="M113.355 25.0125L109.075 29.6925C108.075 28.4125 106.075 27.8125 104.555 27.8125C102.795 27.8125 100.355 28.6125 100.355 30.7325C100.355 35.8925 113.395 32.5725 113.395 42.4925C113.395 48.8125 108.315 51.8125 102.475 51.8125C98.8349 51.8125 95.6349 50.7325 92.9549 48.2525L97.3949 43.3725C98.6749 45.0525 100.755 46.0525 102.835 46.0525C104.875 46.0525 107.155 45.0925 107.155 43.0925C107.155 37.8925 93.8749 40.6925 93.8749 31.2525C93.8749 25.2125 99.1149 22.0525 104.675 22.0525C107.875 22.0525 110.955 22.8925 113.355 25.0125ZM116.112 41.3725C116.112 35.1725 120.912 31.1725 126.912 31.1725C132.912 31.1725 137.712 35.1725 137.712 41.3725C137.712 47.5725 132.912 51.5725 126.912 51.5725C120.912 51.5725 116.112 47.5725 116.112 41.3725ZM122.112 41.3725C122.112 44.2925 123.912 46.2925 126.912 46.2925C129.912 46.2925 131.712 44.2925 131.712 41.3725C131.712 38.4525 129.912 36.4525 126.912 36.4525C123.912 36.4525 122.112 38.4525 122.112 41.3725ZM140.875 51.0925V20.8525H146.875V51.0925H140.875ZM162.934 51.0925V48.6525H162.854C161.534 50.7325 159.134 51.5725 156.694 51.5725C153.054 51.5725 149.774 49.4925 149.774 45.5725C149.774 38.8525 157.934 38.7325 162.934 38.7325C162.934 36.6125 161.174 35.2525 159.094 35.2525C157.134 35.2525 155.494 36.1325 154.214 37.5725L151.014 34.2925C153.214 32.2125 156.414 31.1725 159.574 31.1725C166.574 31.1725 168.454 34.7325 168.454 41.2125V51.0925H162.934ZM162.934 42.5725H161.454C159.614 42.5725 155.534 42.7325 155.534 45.3725C155.534 46.8125 157.054 47.4925 158.374 47.4925C160.734 47.4925 162.934 46.2525 162.934 43.8525V42.5725ZM171.767 51.0925V31.6525H177.767V34.7725H177.847C179.127 32.4125 180.807 31.1725 183.447 31.1725C184.127 31.1725 184.887 31.2125 185.447 31.3725V36.8525C184.607 36.6125 183.767 36.4525 182.887 36.4525C178.327 36.4525 177.767 39.0925 177.767 42.9725V51.0925H171.767Z" fill="white" fill-opacity="0.8"/>
<path d="M198.229 36.9325C198.229 27.8525 204.669 22.0525 213.509 22.0525C222.349 22.0525 228.789 27.8525 228.789 36.9325C228.789 46.0125 222.349 51.8125 213.509 51.8125C204.669 51.8125 198.229 46.0125 198.229 36.9325ZM204.709 36.9325C204.709 42.2125 208.189 46.0525 213.509 46.0525C218.829 46.0525 222.309 42.2125 222.309 36.9325C222.309 31.6525 218.829 27.8125 213.509 27.8125C208.189 27.8125 204.709 31.6525 204.709 36.9325ZM232.379 60.2125V31.6525H237.899V34.2125H237.979C238.899 32.8125 241.219 31.1725 243.939 31.1725C249.699 31.1725 253.499 35.3325 253.499 41.2125C253.499 46.6125 250.139 51.5725 244.619 51.5725C242.139 51.5725 239.819 50.8925 238.459 49.0125H238.379V60.2125H232.379ZM237.899 41.3725C237.899 44.2925 239.699 46.2925 242.699 46.2925C245.699 46.2925 247.499 44.2925 247.499 41.3725C247.499 38.4525 245.699 36.4525 242.699 36.4525C239.699 36.4525 237.899 38.4525 237.899 41.3725ZM270.763 44.6525L274.963 47.7325C273.043 50.1725 269.883 51.5725 266.763 51.5725C260.763 51.5725 255.963 47.5725 255.963 41.3725C255.963 35.1725 260.763 31.1725 266.763 31.1725C272.363 31.1725 275.883 35.1725 275.883 41.3725V43.2525H261.963C262.443 45.5325 264.163 47.0125 266.483 47.0125C268.443 47.0125 269.763 46.0125 270.763 44.6525ZM261.963 39.1725H269.883C269.923 37.1725 268.363 35.4925 266.203 35.4925C263.563 35.4925 262.123 37.2925 261.963 39.1725ZM279.081 51.0925V31.6525H284.841V34.2925H284.921C285.721 32.7725 287.681 31.1725 290.601 31.1725C296.681 31.1725 297.801 35.1725 297.801 40.3725V51.0925H291.801V41.5725C291.801 39.3325 291.761 36.4525 288.681 36.4525C285.561 36.4525 285.081 38.8925 285.081 41.4125V51.0925H279.081Z" fill="#FFD159"/>
<path fill-rule="evenodd" clip-rule="evenodd" d="M58.0957 61.0039H0.258484C1.96699 36.6672 20.7311 17.4966 43.6272 17.4966C66.5233 17.4966 85.2875 36.6672 86.996 61.0039H66.8194L62.4575 52.8172L58.0957 61.0039Z" fill="#FFD159"/>
</svg>
