<svg width="298" height="125" viewBox="0 0 298 125" fill="none" xmlns="http://www.w3.org/2000/svg">
<path d="M113.355 50.0125L109.075 54.6925C108.075 53.4125 106.075 52.8125 104.555 52.8125C102.795 52.8125 100.355 53.6125 100.355 55.7325C100.355 60.8925 113.395 57.5725 113.395 67.4925C113.395 73.8125 108.315 76.8125 102.475 76.8125C98.8349 76.8125 95.6349 75.7325 92.9549 73.2525L97.3949 68.3725C98.6749 70.0525 100.755 71.0525 102.835 71.0525C104.875 71.0525 107.155 70.0925 107.155 68.0925C107.155 62.8925 93.8749 65.6925 93.8749 56.2525C93.8749 50.2125 99.1149 47.0525 104.675 47.0525C107.875 47.0525 110.955 47.8925 113.355 50.0125ZM116.112 66.3725C116.112 60.1725 120.912 56.1725 126.912 56.1725C132.912 56.1725 137.712 60.1725 137.712 66.3725C137.712 72.5725 132.912 76.5725 126.912 76.5725C120.912 76.5725 116.112 72.5725 116.112 66.3725ZM122.112 66.3725C122.112 69.2925 123.912 71.2925 126.912 71.2925C129.912 71.2925 131.712 69.2925 131.712 66.3725C131.712 63.4525 129.912 61.4525 126.912 61.4525C123.912 61.4525 122.112 63.4525 122.112 66.3725ZM140.875 76.0925V45.8525H146.875V76.0925H140.875ZM162.934 76.0925V73.6525H162.854C161.534 75.7325 159.134 76.5725 156.694 76.5725C153.054 76.5725 149.774 74.4925 149.774 70.5725C149.774 63.8525 157.934 63.7325 162.934 63.7325C162.934 61.6125 161.174 60.2525 159.094 60.2525C157.134 60.2525 155.494 61.1325 154.214 62.5725L151.014 59.2925C153.214 57.2125 156.414 56.1725 159.574 56.1725C166.574 56.1725 168.454 59.7325 168.454 66.2125V76.0925H162.934ZM162.934 67.5725H161.454C159.614 67.5725 155.534 67.7325 155.534 70.3725C155.534 71.8125 157.054 72.4925 158.374 72.4925C160.734 72.4925 162.934 71.2525 162.934 68.8525V67.5725ZM171.767 76.0925V56.6525H177.767V59.7725H177.847C179.127 57.4125 180.807 56.1725 183.447 56.1725C184.127 56.1725 184.887 56.2125 185.447 56.3725V61.8525C184.607 61.6125 183.767 61.4525 182.887 61.4525C178.327 61.4525 177.767 64.0925 177.767 67.9725V76.0925H171.767Z" fill="white" fill-opacity="0.8"/>
<path d="M198.229 61.9325C198.229 52.8525 204.669 47.0525 213.509 47.0525C222.349 47.0525 228.789 52.8525 228.789 61.9325C228.789 71.0125 222.349 76.8125 213.509 76.8125C204.669 76.8125 198.229 71.0125 198.229 61.9325ZM204.709 61.9325C204.709 67.2125 208.189 71.0525 213.509 71.0525C218.829 71.0525 222.309 67.2125 222.309 61.9325C222.309 56.6525 218.829 52.8125 213.509 52.8125C208.189 52.8125 204.709 56.6525 204.709 61.9325ZM232.379 85.2125V56.6525H237.899V59.2125H237.979C238.899 57.8125 241.219 56.1725 243.939 56.1725C249.699 56.1725 253.499 60.3325 253.499 66.2125C253.499 71.6125 250.139 76.5725 244.619 76.5725C242.139 76.5725 239.819 75.8925 238.459 74.0125H238.379V85.2125H232.379ZM237.899 66.3725C237.899 69.2925 239.699 71.2925 242.699 71.2925C245.699 71.2925 247.499 69.2925 247.499 66.3725C247.499 63.4525 245.699 61.4525 242.699 61.4525C239.699 61.4525 237.899 63.4525 237.899 66.3725ZM270.763 69.6525L274.963 72.7325C273.043 75.1725 269.883 76.5725 266.763 76.5725C260.763 76.5725 255.963 72.5725 255.963 66.3725C255.963 60.1725 260.763 56.1725 266.763 56.1725C272.363 56.1725 275.883 60.1725 275.883 66.3725V68.2525H261.963C262.443 70.5325 264.163 72.0125 266.483 72.0125C268.443 72.0125 269.763 71.0125 270.763 69.6525ZM261.963 64.1725H269.883C269.923 62.1725 268.363 60.4925 266.203 60.4925C263.563 60.4925 262.123 62.2925 261.963 64.1725ZM279.081 76.0925V56.6525H284.841V59.2925H284.921C285.721 57.7725 287.681 56.1725 290.601 56.1725C296.681 56.1725 297.801 60.1725 297.801 65.3725V76.0925H291.801V66.5725C291.801 64.3325 291.761 61.4525 288.681 61.4525C285.561 61.4525 285.081 63.8925 285.081 66.4125V76.0925H279.081Z" fill="#FFD159"/>
<path fill-rule="evenodd" clip-rule="evenodd" d="M58.0957 86.0039H0.258484C1.96699 61.6672 20.7311 42.4966 43.6272 42.4966C66.5233 42.4966 85.2875 61.6672 86.996 86.0039H66.8194L62.4575 77.8172L58.0957 86.0039Z" fill="#FFD159"/>
</svg>
